<?xml version="1.0" encoding="UTF-8"?>
<svg xmlns="http://www.w3.org/2000/svg" xmlns:xlink="http://www.w3.org/1999/xlink" width="16px" height="16px" viewBox="0 0 16 16" version="1.1">
<g id="surface1">
<path style=" stroke:none;fill-rule:nonzero;fill:rgb(100%,17.647059%,17.647059%);fill-opacity:1;" d="M 11.773438 16 L 4.226562 16 C 1.894531 16 0 14.105469 0 11.773438 L 0 4.226562 C 0 1.894531 1.894531 0 4.226562 0 L 11.773438 0 C 14.105469 0 16 1.894531 16 4.226562 L 16 11.773438 C 16 14.105469 14.105469 16 11.773438 16 Z M 11.773438 16 "/>
<path style=" stroke:none;fill-rule:nonzero;fill:rgb(100%,100%,100%);fill-opacity:1;" d="M 7.660156 6.234375 C 7.726562 6.144531 7.726562 6.027344 7.660156 5.9375 L 6.546875 4.398438 C 6.417969 4.222656 6.214844 4.117188 5.996094 4.117188 L 3.378906 4.117188 C 3.210938 4.117188 3.117188 4.304688 3.214844 4.441406 L 5.621094 7.761719 C 5.722656 7.902344 5.722656 8.097656 5.621094 8.238281 L 3.214844 11.558594 C 3.117188 11.691406 3.210938 11.882812 3.378906 11.882812 L 5.996094 11.882812 C 6.214844 11.882812 6.417969 11.777344 6.546875 11.601562 L 7.660156 10.0625 C 7.726562 9.972656 7.726562 9.855469 7.660156 9.765625 L 6.949219 8.78125 C 6.609375 8.3125 6.609375 7.683594 6.949219 7.21875 Z M 7.660156 6.234375 "/>
<path style=" stroke:none;fill-rule:nonzero;fill:rgb(100%,100%,100%);fill-opacity:1;" d="M 9.628906 11.601562 C 9.753906 11.777344 9.960938 11.882812 10.175781 11.882812 L 12.621094 11.882812 C 12.789062 11.882812 12.882812 11.695312 12.789062 11.558594 L 10.382812 8.238281 C 10.28125 8.097656 10.28125 7.902344 10.382812 7.761719 L 12.789062 4.441406 C 12.871094 4.324219 12.808594 4.164062 12.679688 4.125 L 12.621094 4.117188 L 10.175781 4.117188 C 9.960938 4.117188 9.753906 4.222656 9.628906 4.398438 L 7.367188 7.523438 C 7.160156 7.808594 7.160156 8.191406 7.367188 8.476562 Z M 9.628906 11.601562 "/>
<path style=" stroke:none;fill-rule:evenodd;fill:rgb(100%,67.058825%,67.058825%);fill-opacity:1;" d="M 11.230469 3.070312 C 11.230469 2.945312 11.332031 2.84375 11.453125 2.84375 L 12.988281 2.84375 C 13.464844 2.84375 13.851562 3.230469 13.851562 3.707031 L 13.851562 5.222656 C 13.851562 5.347656 13.75 5.449219 13.625 5.449219 C 13.5 5.449219 13.402344 5.347656 13.402344 5.222656 L 13.402344 3.707031 C 13.402344 3.480469 13.214844 3.296875 12.988281 3.296875 L 11.453125 3.296875 C 11.332031 3.296875 11.230469 3.195312 11.230469 3.070312 Z M 11.230469 3.070312 "/>
<path style=" stroke:none;fill-rule:evenodd;fill:rgb(100%,67.058825%,67.058825%);fill-opacity:1;" d="M 11.230469 12.929688 C 11.230469 13.054688 11.332031 13.15625 11.453125 13.15625 L 12.988281 13.15625 C 13.464844 13.15625 13.851562 12.769531 13.851562 12.292969 L 13.851562 10.777344 C 13.851562 10.652344 13.75 10.550781 13.625 10.550781 C 13.5 10.550781 13.402344 10.652344 13.402344 10.777344 L 13.402344 12.292969 C 13.402344 12.519531 13.214844 12.703125 12.988281 12.703125 L 11.453125 12.703125 C 11.332031 12.703125 11.230469 12.804688 11.230469 12.929688 Z M 11.230469 12.929688 "/>
<path style=" stroke:none;fill-rule:evenodd;fill:rgb(100%,67.058825%,67.058825%);fill-opacity:1;" d="M 4.769531 3.070312 C 4.769531 2.945312 4.667969 2.84375 4.546875 2.84375 L 3.011719 2.84375 C 2.535156 2.84375 2.148438 3.230469 2.148438 3.707031 L 2.148438 5.222656 C 2.148438 5.347656 2.25 5.449219 2.375 5.449219 C 2.5 5.449219 2.597656 5.347656 2.597656 5.222656 L 2.597656 3.707031 C 2.597656 3.480469 2.785156 3.296875 3.011719 3.296875 L 4.546875 3.296875 C 4.667969 3.296875 4.769531 3.195312 4.769531 3.070312 Z M 4.769531 3.070312 "/>
<path style=" stroke:none;fill-rule:evenodd;fill:rgb(100%,67.058825%,67.058825%);fill-opacity:1;" d="M 4.769531 12.929688 C 4.769531 13.054688 4.667969 13.15625 4.546875 13.15625 L 3.011719 13.15625 C 2.535156 13.15625 2.148438 12.769531 2.148438 12.292969 L 2.148438 10.777344 C 2.148438 10.652344 2.25 10.550781 2.375 10.550781 C 2.5 10.550781 2.597656 10.652344 2.597656 10.777344 L 2.597656 12.292969 C 2.597656 12.519531 2.785156 12.703125 3.011719 12.703125 L 4.546875 12.703125 C 4.667969 12.703125 4.769531 12.804688 4.769531 12.929688 Z M 4.769531 12.929688 "/>
</g>
</svg>
